<svg xmlns="http://www.w3.org/2000/svg" xmlns:xlink="http://www.w3.org/1999/xlink" version="1.1" width="940" height="188" viewBox="0 300 940 188" xml:space="preserve">
<desc>Created with Fabric.js 3.5.0</desc>
<defs>
</defs>
<rect x="0" y="0" width="100%" height="100%" fill="rgba(255,255,255,0)"/>
<g transform="matrix(1 0 0 1 468.2032 394)" id="876441">
<g style="">
		<g transform="matrix(0.2408 0 0 0.2408 -390.7329 -0.0059)" id="479930">
<g style="" vector-effect="non-scaling-stroke">
		<g transform="matrix(-2.9999 -0.0218 0.0218 -2.9999 28.9986 188.4327)">
<path style="stroke: rgb(89,89,89); stroke-width: 4; stroke-dasharray: none; stroke-linecap: round; stroke-dashoffset: 0; stroke-linejoin: miter; stroke-miterlimit: 4; is-custom-font: none; font-file-url: none; fill: none; fill-rule: nonzero; opacity: 1;" transform=" translate(-15.705, -14.3)" d="M 31.38 14.3 C 31.38 15.13 31.3 15.97 31.14 16.78 C 30.98 17.6 30.74 18.41 30.43 19.19 C 30.12 19.97 29.73 20.73 29.28 21.45 C 28.82 22.17 28.29 22.86 27.71 23.49 C 27.12 24.13 26.47 24.72 25.77 25.25 C 25.08 25.79 24.32 26.27 23.53 26.68 C 22.75 27.1 21.91 27.45 21.05 27.74 C 20.2 28.02 19.31 28.24 18.41 28.38 C 17.52 28.53 16.6 28.6 15.69 28.6 C 14.78 28.6 13.86 28.53 12.96 28.38 C 12.07 28.24 11.18 28.02 10.32 27.74 C 9.47 27.45 8.63 27.1 7.84 26.68 C 7.06 26.27 6.3 25.79 5.6 25.25 C 4.91 24.72 4.25 24.13 3.67 23.49 C 3.09 22.86 2.56 22.17 2.1 21.45 C 1.65 20.73 1.26 19.97 0.95 19.19 C 0.64 18.41 0.4 17.6 0.24 16.78 C 0.08 15.97 0 15.13 0 14.3 C 0 13.47 0.08 12.63 0.24 11.82 C 0.4 11 0.64 10.19 0.95 9.41 C 1.26 8.63 1.65 7.87 2.1 7.15 C 2.56 6.43 3.09 5.74 3.67 5.11 C 4.25 4.47 4.91 3.88 5.6 3.35 C 6.3 2.81 7.06 2.33 7.84 1.92 C 8.63 1.5 9.47 1.15 10.32 0.86 C 11.18 0.58 12.07 0.36 12.96 0.22 C 13.86 0.07 14.78 0 15.69 0 C 16.6 0 17.52 0.07 18.41 0.22 C 19.31 0.36 20.2 0.58 21.05 0.86 C 21.91 1.15 22.75 1.5 23.53 1.92 C 24.32 2.33 25.08 2.81 25.77 3.35 C 26.47 3.88 27.12 4.47 27.71 5.11 C 28.29 5.74 28.82 6.43 29.28 7.15 C 29.73 7.87 30.12 8.63 30.43 9.41 C 30.74 10.19 30.98 11 31.14 11.82 C 31.3 12.63 31.34 13.89 31.38 14.3 C 31.42 14.71 31.42 13.89 31.38 14.3" stroke-linecap="round"/>
</g>
		<g transform="matrix(-2.9999 -0.0218 0.0218 -2.9999 244.6059 59.7806)">
<path style="stroke: rgb(89,89,89); stroke-width: 4; stroke-dasharray: none; stroke-linecap: round; stroke-dashoffset: 0; stroke-linejoin: miter; stroke-miterlimit: 4; is-custom-font: none; font-file-url: none; fill: none; fill-rule: nonzero; opacity: 1;" transform=" translate(-15.705, -12.92)" d="M 31.38 12.92 C 31.38 13.67 31.3 14.42 31.14 15.16 C 30.98 15.9 30.74 16.63 30.43 17.34 C 30.12 18.04 29.73 18.73 29.28 19.38 C 28.82 20.02 28.29 20.65 27.71 21.22 C 27.12 21.79 26.47 22.33 25.77 22.81 C 25.08 23.29 24.32 23.73 23.53 24.1 C 22.75 24.48 21.91 24.8 21.05 25.06 C 20.2 25.31 19.31 25.51 18.41 25.64 C 17.52 25.77 16.6 25.84 15.69 25.84 C 14.78 25.84 13.86 25.77 12.96 25.64 C 12.07 25.51 11.18 25.31 10.32 25.06 C 9.47 24.8 8.63 24.48 7.84 24.1 C 7.06 23.73 6.3 23.29 5.6 22.81 C 4.91 22.33 4.25 21.79 3.67 21.22 C 3.09 20.65 2.56 20.02 2.1 19.38 C 1.65 18.73 1.26 18.04 0.95 17.34 C 0.64 16.63 0.4 15.9 0.24 15.16 C 0.08 14.42 0 13.67 0 12.92 C 0 12.17 0.08 11.41 0.24 10.67 C 0.4 9.94 0.64 9.2 0.95 8.5 C 1.26 7.8 1.65 7.11 2.1 6.46 C 2.56 5.81 3.09 5.19 3.67 4.61 C 4.25 4.04 4.91 3.5 5.6 3.02 C 6.3 2.54 7.06 2.1 7.84 1.73 C 8.63 1.36 9.47 1.03 10.32 0.78 C 11.18 0.52 12.07 0.33 12.96 0.2 C 13.86 0.07 14.78 0 15.69 0 C 16.6 0 17.52 0.07 18.41 0.2 C 19.31 0.33 20.2 0.52 21.05 0.78 C 21.91 1.03 22.75 1.36 23.53 1.73 C 24.32 2.1 25.08 2.54 25.77 3.02 C 26.47 3.5 27.12 4.04 27.71 4.61 C 28.29 5.19 28.82 5.81 29.28 6.46 C 29.73 7.11 30.12 7.8 30.43 8.5 C 30.74 9.2 30.98 9.94 31.14 10.67 C 31.3 11.41 31.34 12.54 31.38 12.92 C 31.42 13.29 31.42 12.54 31.38 12.92" stroke-linecap="round"/>
</g>
		<g transform="matrix(3 0 0 3 140.3741 127.6456)">
<path style="stroke: rgb(89,89,89); stroke-width: 4; stroke-dasharray: none; stroke-linecap: round; stroke-dashoffset: 0; stroke-linejoin: miter; stroke-miterlimit: 4; is-custom-font: none; font-file-url: none; fill: none; fill-rule: nonzero; opacity: 1;" transform=" translate(-22.525, 13.955)" d="M 0 0 C 7.51 -4.65 37.54 -23.26 45.05 -27.91 M 0 0 C 7.51 -4.65 37.54 -23.26 45.05 -27.91" stroke-linecap="round"/>
</g>
		<g transform="matrix(3 0 0 3 -128.7123 -34.9858)">
<path style="stroke: rgb(89,89,89); stroke-width: 4; stroke-dasharray: none; stroke-linecap: round; stroke-dashoffset: 0; stroke-linejoin: miter; stroke-miterlimit: 4; is-custom-font: none; font-file-url: none; fill: none; fill-rule: nonzero; opacity: 1;" transform=" translate(-28.63, 16.86)" d="M 0 0 C 9.54 -5.62 47.72 -28.1 57.26 -33.72 M 0 0 C 9.54 -5.62 47.72 -28.1 57.26 -33.72" stroke-linecap="round"/>
</g>
		<g transform="matrix(3 0 0 3 118.7577 -28.5525)">
<path style="stroke: rgb(89,89,89); stroke-width: 4; stroke-dasharray: none; stroke-linecap: round; stroke-dashoffset: 0; stroke-linejoin: miter; stroke-miterlimit: 4; is-custom-font: none; font-file-url: none; fill: none; fill-rule: nonzero; opacity: 1;" transform=" translate(-32.99, -18.765)" d="M 0 0 C 11 6.25 54.98 31.27 65.98 37.53 M 0 0 C 11 6.25 54.98 31.27 65.98 37.53" stroke-linecap="round"/>
</g>
		<g transform="matrix(3 0 0 3 -115.8931 121.0425)">
<path style="stroke: rgb(89,89,89); stroke-width: 4; stroke-dasharray: none; stroke-linecap: round; stroke-dashoffset: 0; stroke-linejoin: miter; stroke-miterlimit: 4; is-custom-font: none; font-file-url: none; fill: none; fill-rule: nonzero; opacity: 1;" transform=" translate(-32.67, -17.46)" d="M 0 0 C 10.89 5.82 54.45 29.1 65.34 34.92 M 0 0 C 10.89 5.82 54.45 29.1 65.34 34.92" stroke-linecap="round"/>
</g>
		<g transform="matrix(3 0 0 3 -10.3077 -88.5869)">
<path style="stroke: rgb(89,89,89); stroke-width: 4; stroke-dasharray: none; stroke-linecap: round; stroke-dashoffset: 0; stroke-linejoin: miter; stroke-miterlimit: 4; is-custom-font: none; font-file-url: none; fill: none; fill-rule: nonzero; opacity: 1;" transform=" translate(-13.225, 2.2562)" d="M 0 0 C 2.13 -0.87 8.4 -5.34 12.8 -5.22 C 17.21 -5.1 24.17 -0.27 26.45 0.71 M 0 0 C 2.13 -0.87 8.4 -5.34 12.8 -5.22 C 17.21 -5.1 24.17 -0.27 26.45 0.71" stroke-linecap="round"/>
</g>
		<g transform="matrix(3 0 0 3 -224.0172 38.9203)">
<path style="stroke: rgb(89,89,89); stroke-width: 4; stroke-dasharray: none; stroke-linecap: round; stroke-dashoffset: 0; stroke-linejoin: miter; stroke-miterlimit: 4; is-custom-font: none; font-file-url: none; fill: none; fill-rule: nonzero; opacity: 1;" transform=" translate(8.3701, -10.83)" d="M 0 0 C -2.79 2.03 -16.14 8.54 -16.72 12.15 C -17.29 15.76 -5.65 20.07 -3.44 21.66 M 0 0 C -2.79 2.03 -16.14 8.54 -16.72 12.15 C -17.29 15.76 -5.65 20.07 -3.44 21.66" stroke-linecap="round"/>
</g>
		<g transform="matrix(3 0.0064 -0.0064 3 -29.6626 -188.4332)">
<path style="stroke: rgb(89,89,89); stroke-width: 4; stroke-dasharray: none; stroke-linecap: round; stroke-dashoffset: 0; stroke-linejoin: miter; stroke-miterlimit: 4; is-custom-font: none; font-file-url: none; fill: none; fill-rule: nonzero; opacity: 1;" transform=" translate(-15.705, -14.3)" d="M 31.38 14.3 C 31.38 15.13 31.3 15.97 31.14 16.78 C 30.98 17.6 30.74 18.41 30.43 19.19 C 30.12 19.97 29.73 20.73 29.28 21.45 C 28.82 22.17 28.29 22.86 27.71 23.49 C 27.12 24.13 26.47 24.72 25.77 25.25 C 25.08 25.79 24.32 26.27 23.53 26.68 C 22.75 27.1 21.91 27.45 21.05 27.74 C 20.2 28.02 19.31 28.24 18.41 28.38 C 17.52 28.53 16.6 28.6 15.69 28.6 C 14.78 28.6 13.86 28.53 12.96 28.38 C 12.07 28.24 11.18 28.02 10.32 27.74 C 9.47 27.45 8.63 27.1 7.84 26.68 C 7.06 26.27 6.3 25.79 5.6 25.25 C 4.91 24.72 4.25 24.13 3.67 23.49 C 3.09 22.86 2.56 22.17 2.1 21.45 C 1.65 20.73 1.26 19.97 0.95 19.19 C 0.64 18.41 0.4 17.6 0.24 16.78 C 0.08 15.97 0 15.13 0 14.3 C 0 13.47 0.08 12.63 0.24 11.82 C 0.4 11 0.64 10.19 0.95 9.41 C 1.26 8.63 1.65 7.87 2.1 7.15 C 2.56 6.43 3.09 5.74 3.67 5.11 C 4.25 4.47 4.91 3.88 5.6 3.35 C 6.3 2.81 7.06 2.33 7.84 1.92 C 8.63 1.5 9.47 1.15 10.32 0.86 C 11.18 0.58 12.07 0.36 12.96 0.22 C 13.86 0.07 14.78 0 15.69 0 C 16.6 0 17.52 0.07 18.41 0.22 C 19.31 0.36 20.2 0.58 21.05 0.86 C 21.91 1.15 22.75 1.5 23.53 1.92 C 24.32 2.33 25.08 2.81 25.77 3.35 C 26.47 3.88 27.12 4.47 27.71 5.11 C 28.29 5.74 28.82 6.43 29.28 7.15 C 29.73 7.87 30.12 8.63 30.43 9.41 C 30.74 10.19 30.98 11 31.14 11.82 C 31.3 12.63 31.34 13.89 31.38 14.3 C 31.42 14.71 31.42 13.89 31.38 14.3" stroke-linecap="round"/>
</g>
		<g transform="matrix(3 0.0064 -0.0064 3 -244.6054 -58.6739)">
<path style="stroke: rgb(89,89,89); stroke-width: 4; stroke-dasharray: none; stroke-linecap: round; stroke-dashoffset: 0; stroke-linejoin: miter; stroke-miterlimit: 4; is-custom-font: none; font-file-url: none; fill: none; fill-rule: nonzero; opacity: 1;" transform=" translate(-15.705, -12.92)" d="M 31.38 12.92 C 31.38 13.67 31.3 14.42 31.14 15.16 C 30.98 15.9 30.74 16.63 30.43 17.34 C 30.12 18.04 29.73 18.73 29.28 19.38 C 28.82 20.02 28.29 20.65 27.71 21.22 C 27.12 21.79 26.47 22.33 25.77 22.81 C 25.08 23.29 24.32 23.73 23.53 24.1 C 22.75 24.48 21.91 24.8 21.05 25.06 C 20.2 25.31 19.31 25.51 18.41 25.64 C 17.52 25.77 16.6 25.84 15.69 25.84 C 14.78 25.84 13.86 25.77 12.96 25.64 C 12.07 25.51 11.18 25.31 10.32 25.06 C 9.47 24.8 8.63 24.48 7.84 24.1 C 7.06 23.73 6.3 23.29 5.6 22.81 C 4.91 22.33 4.25 21.79 3.67 21.22 C 3.09 20.65 2.56 20.02 2.1 19.38 C 1.65 18.73 1.26 18.04 0.95 17.34 C 0.64 16.63 0.4 15.9 0.24 15.16 C 0.08 14.42 0 13.67 0 12.92 C 0 12.17 0.08 11.41 0.24 10.67 C 0.4 9.94 0.64 9.2 0.95 8.5 C 1.26 7.8 1.65 7.11 2.1 6.46 C 2.56 5.81 3.09 5.19 3.67 4.61 C 4.25 4.04 4.91 3.5 5.6 3.02 C 6.3 2.54 7.06 2.1 7.84 1.73 C 8.63 1.36 9.47 1.03 10.32 0.78 C 11.18 0.52 12.07 0.33 12.96 0.2 C 13.86 0.07 14.78 0 15.69 0 C 16.6 0 17.52 0.07 18.41 0.2 C 19.31 0.33 20.2 0.52 21.05 0.78 C 21.91 1.03 22.75 1.36 23.53 1.73 C 24.32 2.1 25.08 2.54 25.77 3.02 C 26.47 3.5 27.12 4.04 27.71 4.61 C 28.29 5.19 28.82 5.81 29.28 6.46 C 29.73 7.11 30.12 7.8 30.43 8.5 C 30.74 9.2 30.98 9.94 31.14 10.67 C 31.3 11.41 31.34 12.54 31.38 12.92 C 31.42 13.29 31.42 12.54 31.38 12.92" stroke-linecap="round"/>
</g>
		<g transform="matrix(-3 0.0154 -0.0154 -3 -140.7241 -127.074)">
<path style="stroke: rgb(89,89,89); stroke-width: 4; stroke-dasharray: none; stroke-linecap: round; stroke-dashoffset: 0; stroke-linejoin: miter; stroke-miterlimit: 4; is-custom-font: none; font-file-url: none; fill: none; fill-rule: nonzero; opacity: 1;" transform=" translate(-22.525, 13.955)" d="M 0 0 C 7.51 -4.65 37.54 -23.26 45.05 -27.91 M 0 0 C 7.51 -4.65 37.54 -23.26 45.05 -27.91" stroke-linecap="round"/>
</g>
		<g transform="matrix(-3 0.0154 -0.0154 -3 129.1951 34.1714)">
<path style="stroke: rgb(89,89,89); stroke-width: 4; stroke-dasharray: none; stroke-linecap: round; stroke-dashoffset: 0; stroke-linejoin: miter; stroke-miterlimit: 4; is-custom-font: none; font-file-url: none; fill: none; fill-rule: nonzero; opacity: 1;" transform=" translate(-28.63, 16.86)" d="M 0 0 C 9.54 -5.62 47.72 -28.1 57.26 -33.72 M 0 0 C 9.54 -5.62 47.72 -28.1 57.26 -33.72" stroke-linecap="round"/>
</g>
		<g transform="matrix(-3 0.0154 -0.0154 -3 -118.3047 29.0108)">
<path style="stroke: rgb(89,89,89); stroke-width: 4; stroke-dasharray: none; stroke-linecap: round; stroke-dashoffset: 0; stroke-linejoin: miter; stroke-miterlimit: 4; is-custom-font: none; font-file-url: none; fill: none; fill-rule: nonzero; opacity: 1;" transform=" translate(-32.99, -18.765)" d="M 0 0 C 11 6.25 54.98 31.27 65.98 37.53 M 0 0 C 11 6.25 54.98 31.27 65.98 37.53" stroke-linecap="round"/>
</g>
		<g transform="matrix(-3 0.0154 -0.0154 -3 115.5737 -121.789)">
<path style="stroke: rgb(89,89,89); stroke-width: 4; stroke-dasharray: none; stroke-linecap: round; stroke-dashoffset: 0; stroke-linejoin: miter; stroke-miterlimit: 4; is-custom-font: none; font-file-url: none; fill: none; fill-rule: nonzero; opacity: 1;" transform=" translate(-32.67, -17.46)" d="M 0 0 C 10.89 5.82 54.45 29.1 65.34 34.92 M 0 0 C 10.89 5.82 54.45 29.1 65.34 34.92" stroke-linecap="round"/>
</g>
		<g transform="matrix(-3 0.0154 -0.0154 -3 11.0678 88.3877)">
<path style="stroke: rgb(89,89,89); stroke-width: 4; stroke-dasharray: none; stroke-linecap: round; stroke-dashoffset: 0; stroke-linejoin: miter; stroke-miterlimit: 4; is-custom-font: none; font-file-url: none; fill: none; fill-rule: nonzero; opacity: 1;" transform=" translate(-13.225, 2.2562)" d="M 0 0 C 2.13 -0.87 8.4 -5.34 12.8 -5.22 C 17.21 -5.1 24.17 -0.27 26.45 0.71 M 0 0 C 2.13 -0.87 8.4 -5.34 12.8 -5.22 C 17.21 -5.1 24.17 -0.27 26.45 0.71" stroke-linecap="round"/>
</g>
		<g transform="matrix(-3 0.0154 -0.0154 -3 224.18 -40.2241)">
<path style="stroke: rgb(89,89,89); stroke-width: 4; stroke-dasharray: none; stroke-linecap: round; stroke-dashoffset: 0; stroke-linejoin: miter; stroke-miterlimit: 4; is-custom-font: none; font-file-url: none; fill: none; fill-rule: nonzero; opacity: 1;" transform=" translate(8.3701, -10.83)" d="M 0 0 C -2.79 2.03 -16.14 8.54 -16.72 12.15 C -17.29 15.76 -5.65 20.07 -3.44 21.66 M 0 0 C -2.79 2.03 -16.14 8.54 -16.72 12.15 C -17.29 15.76 -5.65 20.07 -3.44 21.66" stroke-linecap="round"/>
</g>
</g>
</g>
		<g transform="matrix(1.0259 0 0 1.0259 77.5478 -0.001)" id="416127" clip-path="url(#CLIPPATH_4)">
<clipPath id="CLIPPATH_4">
	<path transform="matrix(1 0 0 1 0.0161 20.7951) translate(-480, -270)" id="g39d34dbb384_0_0.0" d="m 0 0 l 960 0 l 0 540 l -960 0 l 0 -540 z" stroke-linecap="round"/>
</clipPath>
<path style="stroke: none; stroke-width: 1; stroke-dasharray: none; stroke-linecap: square; stroke-dashoffset: 0; stroke-linejoin: miter; stroke-miterlimit: 10; is-custom-font: none; font-file-url: none; fill: rgb(89,89,89); fill-rule: nonzero; opacity: 1;" transform=" translate(-479.9839, -249.2049)" d="m 99.70644 294.14236 l 8.328125 0 l 0 -23.421875 q 0.90625 1 1.9375 1.828125 q 1.046875 0.828125 2.203125 1.515625 q 1.9375 1.078125 4.34375 1.65625 q 2.421875 0.59375 5.21875 0.59375 q 4.59375 0 8.171867 -1.890625 q 3.578125 -1.90625 6.015625 -5.234375 q 2.4375 -3.328125 3.6875 -7.859375 q 1.265625 -4.53125 1.265625 -9.749985 l 0 -0.953125 q 0 -5.453125 -1.265625 -10.015625 q -1.25 -4.578125 -3.6875 -7.859375 q -2.4375 -3.296875 -6.046875 -5.140625 q -3.5937424 -1.84375 -8.281242 -1.84375 q -2.65625 0 -4.984375 0.5625 q -2.3125 0.5625 -4.203125 1.640625 q -1.359375 0.71875 -2.53125 1.734375 q -1.171875 1.015625 -2.15625 2.265625 l -0.40625 -5.3125 l -7.609375 0 l 0 67.48436 z m 32.843742 -43.51561 l 0 0.953125 q 0 3.5625 -0.796875 6.8124847 q -0.78125 3.234375 -2.40625 5.703125 q -1.6249924 2.484375 -4.1562424 3.953125 q -2.515625 1.453125 -5.984375 1.453125 q -2.15625 0 -3.9375 -0.53125 q -1.78125 -0.546875 -3.21875 -1.484375 q -1.265625 -0.8125 -2.265625 -1.984375 q -0.984375 -1.171875 -1.75 -2.53125 l 0 -23.468735 q 0.859375 -1.53125 1.984375 -2.78125 q 1.125 -1.265625 2.5625 -2.125 q 1.3125 -0.859375 2.953125 -1.3125 q 1.65625 -0.453125 3.59375 -0.453125 q 3.5 0 6.015625 1.453125 q 2.53125 1.4375 4.2031174 3.875 q 1.625 2.46875 2.40625 5.6875 q 0.796875 3.21875 0.796875 6.78125 z m 23.868393 -44.421875 l 0 7.25 l 16.578125 0 l 0 54.749985 l -16.578125 0 l 0 7.203125 l 40.828125 0 l 0 -7.203125 l -15.90625 0 l 0 -61.999985 l -24.921875 0 z m 86.10277 69.20311 l 8.6875 0 l 0 -0.71875 q -0.8125 -2.03125 -1.265625 -4.75 q -0.4375 -2.734375 -0.4375 -5.15625 l 0 -22.67186 q 0 -4.09375 -1.5 -7.15625 q -1.484375 -3.0625 -4.046875 -5.140625 q -2.609375 -2.03125 -6.171875 -3.03125 q -3.5625 -1.015625 -7.703125 -1.015625 q -4.546875 0 -8.140625 1.265625 q -3.578125 1.25 -6.046875 3.28125 q -2.53125 2.0625 -3.859375 4.640625 q -1.328125 2.5625 -1.375 5.21875 l 8.390625 0 q 0 -1.53125 0.734375 -2.9375 q 0.75 -1.421875 2.09375 -2.46875 q 1.359375 -1.03125 3.3125 -1.65625 q 1.96875 -0.640625 4.4375 -0.640625 q 2.65625 0 4.796875 0.6875 q 2.140625 0.671875 3.625 1.890625 q 1.484375 1.25 2.296875 3.015625 q 0.8125 1.75 0.8125 3.953125 l 0 3.84375 l -9.09375 0 q -5.09375 0 -9.21875 0.984375 q -4.125 0.984375 -7.046875 2.96875 q -2.921875 2.03125 -4.53125 5.046875 q -1.59375 3.0156097 -1.59375 7.0312347 q 0 3.0625 1.1875 5.703125 q 1.203125 2.625 3.40625 4.53125 q 2.15625 1.9375 5.28125 3.0625 q 3.140625 1.125 7.015625 1.125 q 2.390625 0 4.5 -0.5 q 2.125 -0.5 4.015625 -1.359375 q 1.84375 -0.84375 3.390625 -1.96875 q 1.5625 -1.125 2.828125 -2.390625 q 0.140625 1.53125 0.421875 2.953125 q 0.296875 1.40625 0.796875 2.359375 z m -14.734375 -6.359375 q -2.4375 0 -4.28125 -0.625 q -1.84375 -0.625 -3.0625 -1.75 q -1.21875 -1.09375 -1.828125 -2.625 q -0.609375 -1.53125 -0.609375 -3.328125 q 0 -1.890625 0.703125 -3.375 q 0.703125 -1.4843597 2.046875 -2.5781097 q 1.890625 -1.53125 5.109375 -2.265625 q 3.21875 -0.75 7.546875 -0.75 l 7.75 0 l 0 9.874985 q -0.71875 1.4375 -1.984375 2.765625 q -1.25 1.328125 -2.96875 2.359375 q -1.75 1.046875 -3.875 1.671875 q -2.109375 0.625 -4.546875 0.625 z m 57.805923 -54.187485 l -8.390625 0 l 0 11.796875 l -12.796875 0 l 0 6.453125 l 12.796875 0 l 0 26.48436 q 0 4.5 1.1875 7.6875 q 1.203125 3.171875 3.28125 5.15625 q 2.0625 2.015625 4.875 2.953125 q 2.828125 0.921875 6.0625 0.921875 q 1.9375 0 3.890625 -0.1875 q 1.96875 -0.171875 3.734375 -0.53125 q 1.75 -0.328125 3.234375 -0.796875 q 1.484375 -0.46875 2.53125 -1.109375 l -1.171875 -5.890625 q -0.765625 0.171875 -1.96875 0.421875 q -1.1875 0.25 -2.546875 0.46875 q -1.390625 0.234375 -2.828125 0.390625 q -1.4375 0.15625 -2.796875 0.15625 q -1.84375 0 -3.5 -0.453125 q -1.640625 -0.453125 -2.890625 -1.578125 q -1.265625 -1.078125 -1.984375 -2.921875 q -0.71875 -1.84375 -0.71875 -4.6875 l 0 -26.48436 l 18.5625 0 l 0 -6.453125 l -18.5625 0 l 0 -11.796875 z m 48.055878 60.54686 l 8.390625 0 l 0 -42.29686 l 18.78125 0 l 0 -6.453125 l -18.78125 0 l 0 -3.421875 q 0 -3.0625 0.78125 -5.359375 q 0.796875 -2.296875 2.328125 -3.734375 q 1.4375 -1.40625 3.625 -2.09375 q 2.1875 -0.703125 5.015625 -0.703125 q 2.796875 0 5.25 0.46875 q 2.453125 0.46875 4.3125 1.109375 l 0.984375 -6.890625 q -1.171875 -0.3125 -2.296875 -0.5625 q -1.125 -0.25 -2.25 -0.484375 q -1.71875 -0.3125 -3.484375 -0.515625 q -1.75 -0.203125 -3.546875 -0.203125 q -4.328125 0 -7.84375 1.21875 q -3.515625 1.21875 -5.984375 3.609375 q -2.53125 2.390625 -3.90625 5.921875 q -1.375 3.53125 -1.375 8.21875 l 0 3.421875 l -13.421875 0 l 0 6.453125 l 13.421875 0 l 0 42.29686 z m 40.602783 -24.82811 l 0 1 q 0 5.2656097 1.53125 9.781235 q 1.53125 4.5 4.40625 7.828125 q 2.84375 3.328125 6.96875 5.234375 q 4.125 1.890625 9.296875 1.890625 q 5.140625 0 9.234375 -1.890625 q 4.109375 -1.90625 6.984375 -5.234375 q 2.84375 -3.328125 4.375 -7.828125 q 1.53125 -4.515625 1.53125 -9.781235 l 0 -1 q 0 -5.265625 -1.53125 -9.796875 q -1.53125 -4.53125 -4.375 -7.859375 q -2.875 -3.328125 -7 -5.234375 q -4.125 -1.921875 -9.3125 -1.921875 q -5.125 0 -9.234375 1.921875 q -4.09375 1.90625 -6.9375 5.234375 q -2.875 3.328125 -4.40625 7.859375 q -1.53125 4.53125 -1.53125 9.796875 z m 8.328125 1 l 0 -1 q 0 -3.546875 0.859375 -6.8125 q 0.859375 -3.28125 2.609375 -5.75 q 1.71875 -2.484375 4.28125 -3.9375 q 2.5625 -1.46875 6.03125 -1.46875 q 3.46875 0 6.0625 1.46875 q 2.59375 1.453125 4.359375 3.9375 q 1.703125 2.46875 2.578125 5.75 q 0.890625 3.265625 0.890625 6.8125 l 0 1 q 0 3.59375 -0.859375 6.8593597 q -0.859375 3.265625 -2.578125 5.75 q -1.75 2.484375 -4.34375 3.921875 q -2.59375 1.4375 -6.015625 1.4375 q -3.46875 0 -6.078125 -1.4375 q -2.609375 -1.4375 -4.328125 -3.921875 q -1.75 -2.484375 -2.609375 -5.75 q -0.859375 -3.2656097 -0.859375 -6.8593597 z m 81.32153 -25.8125 q -5.3125 0 -9.484375 2.328125 q -4.171875 2.3125 -7.140625 6.3125 l -0.046875 -1.21875 l -0.359375 -6.53125 l -7.921875 0 l 0 48.749985 l 8.375 0 l 0 -31.26561 q 0.8125 -2.25 2.046875 -4.078125 q 1.234375 -1.828125 2.90625 -3.078125 q 1.84375 -1.453125 4.3125 -2.1875 q 2.484375 -0.75 5.5625 -0.75 q 2.375 0 4.5625 0.25 q 2.1875 0.25 4.625 0.78125 l 1.125 -8.140625 q -1.265625 -0.546875 -3.765625 -0.859375 q -2.5 -0.3125 -4.796875 -0.3125 z m 27.259033 0.890625 l -7.484375 0 l 0 48.749985 l 7.9375 0 l 0 -38.79686 q 0.265625 -0.71875 0.6875 -1.34375 q 0.4375 -0.625 1.015625 -1.125 q 0.765625 -0.625 1.859375 -0.96875 q 1.109375 -0.34375 2.609375 -0.34375 q 1.34375 0 2.359375 0.34375 q 1.015625 0.34375 1.6875 1.0625 q 0.71875 0.765625 1.046875 1.9375 q 0.34375 1.171875 0.34375 2.703125 l 0 36.531235 l 7.9375 0 l 0 -36.48436 q 0 -0.28125 0 -0.484375 q 0 -0.203125 0 -0.421875 q 0.140625 -1.125 0.5469055 -2.046875 q 0.40625 -0.921875 1.125 -1.65625 q 0.71875 -0.671875 1.796875 -1.078125 q 1.078125 -0.40625 2.5625 -0.40625 q 1.40625 0 2.453125 0.359375 q 1.0625 0.359375 1.78125 1.09375 q 0.6875 0.765625 1.046875 1.9375 q 0.359375 1.15625 0.359375 2.703125 l 0 36.48436 l 7.921875 0 l 0 -36.406235 q 0 -3.515625 -0.8125 -6.09375 q -0.8125 -2.59375 -2.34375 -4.21875 q -1.390625 -1.4375 -3.421875 -2.171875 q -2.03125 -0.75 -4.546875 -0.75 q -1.84375 0.03125 -3.40625 0.484375 q -1.546875 0.453125 -2.8125 1.21875 q -0.984375 0.671875 -1.84375 1.578125 q -0.8594055 0.90625 -1.4844055 1.9375 q -0.5 -1.125 -1.203125 -2.015625 q -0.6875 -0.90625 -1.546875 -1.546875 q -1.171875 -0.8125 -2.734375 -1.234375 q -1.546875 -0.421875 -3.484375 -0.421875 q -3.421875 0.03125 -5.84375 1.484375 q -2.40625 1.4375 -3.890625 4 l -0.21875 -4.59375 z m 92.85281 24.921875 l 0 -0.953125 q 0 -3.828125 -0.640625 -7.265625 q -0.625 -3.453125 -1.84375 -6.296875 q -1.171875 -2.515625 -2.703125 -4.5625 q -1.53125 -2.0625 -3.46875 -3.5 q -2.15625 -1.53125 -4.828125 -2.375 q -2.65625 -0.859375 -5.796875 -0.859375 q -2.53125 0 -4.703125 0.5 q -2.15625 0.484375 -3.953125 1.4375 q -1.4375 0.765625 -2.703125 1.828125 q -1.265625 1.046875 -2.296875 2.359375 l 0 -25.6875 l -8.328125 0 l 0 69.20311 l 7.65625 0 l 0.40625 -5.546875 q 0.8125 1.046875 1.703125 1.90625 q 0.90625 0.84375 1.890625 1.5625 q 2.078125 1.453125 4.671875 2.21875 q 2.59375 0.765625 5.734375 0.765625 q 2.75 0 5.109375 -0.6875 q 2.375 -0.671875 4.359375 -1.890625 q 2.75 -1.75 4.703125 -4.421875 q 1.96875 -2.6875 3.171875 -6.0625 q 0.90625 -2.578125 1.375 -5.53125 q 0.484375 -2.9531097 0.484375 -6.1406097 z m -8.34375 -0.953125 l 0 0.953125 q 0 2.15625 -0.265625 4.234375 q -0.265625 2.0624847 -0.859375 3.8749847 q -0.71875 2.390625 -1.9375 4.328125 q -1.21875 1.9375 -3.015625 3.1875 q -1.34375 1 -3.0625 1.515625 q -1.71875 0.515625 -3.78125 0.515625 q -2.171875 0 -3.96875 -0.5625 q -1.796875 -0.5625 -3.25 -1.59375 q -1.4375 -1.046875 -2.546875 -2.421875 q -1.09375 -1.375 -1.90625 -2.984375 l 0 -21.312485 q 0.765625 -1.625 1.859375 -3 q 1.109375 -1.375 2.5625 -2.40625 q 1.390625 -1 3.1875 -1.5625 q 1.8125 -0.5625 3.96875 -0.5625 q 1.984375 0 3.59375 0.453125 q 1.625 0.453125 2.9375 1.265625 q 1.890625 1.125 3.1875 3.109375 q 1.3125 1.984375 2.125 4.359375 q 0.59375 1.9375 0.875 4.125 q 0.296875 2.1875 0.296875 4.484375 z m 54.509033 24.781235 l 7.578125 0 l 0 -48.749985 l -8.375 0 l 0 34.968735 q -0.6875 1.578125 -1.703125 2.90625 q -1 1.328125 -2.359375 2.265625 q -1.625 1.171875 -3.828125 1.828125 q -2.203125 0.65625 -5 0.65625 q -2.390625 0 -4.21875 -0.625 q -1.8125 -0.640625 -3.078125 -2.21875 q -1.265625 -1.53125 -1.90625 -4.140625 q -0.625 -2.609375 -0.625 -6.5781097 l 0 -29.0625 l -8.328125 0 l 0 28.96875 q 0 5.4531097 1.1875 9.35936 q 1.203125 3.890625 3.40625 6.40625 q 2.203125 2.53125 5.3125 3.734375 q 3.109375 1.1875 6.9375 1.1875 q 4.78125 0 8.421875 -2 q 3.65625 -2.015625 6.09375 -5.625 l 0.484375 6.71875 z m 24.555908 -48.749985 l 0 7.25 l 16.578125 0 l 0 34.29686 l -16.578125 0 l 0 7.203125 l 40.828125 0 l 0 -7.203125 l -15.90625 0 l 0 -41.54686 l -24.921875 0 z m 15.5 -12.796875 q 0 2.03125 1.234375 3.390625 q 1.25 1.34375 3.765625 1.34375 q 2.484375 0 3.734375 -1.34375 q 1.265625 -1.359375 1.265625 -3.390625 q 0 -1.125 -0.359375 -2.0625 q -0.359375 -0.953125 -1.078125 -1.578125 q -0.578125 -0.59375 -1.484375 -0.921875 q -0.90625 -0.34375 -2.078125 -0.34375 q -1.171875 0 -2.09375 0.34375 q -0.921875 0.328125 -1.5 0.921875 q -0.734375 0.671875 -1.078125 1.625 q -0.328125 0.9375 -0.328125 2.015625 z m 39.86841 -7.65625 l 0 7.25 l 16.578125 0 l 0 54.749985 l -16.578125 0 l 0 7.203125 l 40.828125 0 l 0 -7.203125 l -15.90625 0 l 0 -61.999985 l -24.921875 0 z m 52.49341 44.421875 l 0 0.953125 q 0 5.2187347 1.390625 9.749985 q 1.40625 4.53125 3.921875 7.859375 q 2.515625 3.328125 6.09375 5.234375 q 3.59375 1.890625 8 1.890625 q 4.515625 0 7.890625 -1.53125 q 3.375 -1.53125 5.8125 -4.515625 l 0.359375 5.140625 l 7.65625 0 l 0 -69.20311 l -8.328125 0 l 0 25.28125 q -2.390625 -2.796875 -5.65625 -4.25 q -3.265625 -1.46875 -7.640625 -1.46875 q -4.453125 0 -8.0625 1.84375 q -3.609375 1.84375 -6.125 5.140625 q -2.5625 3.28125 -3.9375 7.859375 q -1.375 4.5625 -1.375 10.015625 z m 8.328125 0.953125 l 0 -0.953125 q 0 -3.5625 0.765625 -6.78125 q 0.765625 -3.21875 2.390625 -5.6875 q 1.578125 -2.4375 4.078125 -3.875 q 2.5 -1.453125 6.015625 -1.453125 q 4.09375 0 6.84375 1.921875 q 2.75 1.90625 4.375 4.890625 l 0 22.60936 q -1.625 3.203125 -4.375 5.09375 q -2.75 1.890625 -6.9375 1.890625 q -3.46875 0 -5.953125 -1.421875 q -2.46875 -1.421875 -4.046875 -3.84375 q -1.625 -2.4375 -2.390625 -5.625 q -0.765625 -3.2031097 -0.765625 -6.7656097 z m 81.00903 10.89061 q 0 1.171875 -0.453125 2.21875 q -0.453125 1.03125 -1.3125 1.890625 q -1.390625 1.390625 -3.875 2.1875 q -2.46875 0.78125 -5.8125 0.78125 q -2.109375 0 -4.28125 -0.4375 q -2.15625 -0.453125 -3.90625 -1.546875 q -1.8125 -1.078125 -3 -2.828125 q -1.1875 -1.765625 -1.375 -4.328125 l -8.328125 0 q 0 3.109375 1.40625 6 q 1.421875 2.875 4.125 5.03125 q 2.65625 2.21875 6.53125 3.546875 q 3.875 1.328125 8.828125 1.328125 q 4.328125 0 7.96875 -1.03125 q 3.65625 -1.046875 6.28125 -2.9375 q 2.609375 -1.890625 4.0625 -4.546875 q 1.46875 -2.65625 1.46875 -5.90625 q 0 -3.015625 -1.28125 -5.3125 q -1.28125 -2.2968597 -3.71875 -4.0624847 q -2.4375 -1.703125 -6 -2.9375 q -3.546875 -1.25 -8.046875 -2.1875 q -3.4375 -0.6875 -5.671875 -1.40625 q -2.21875 -0.71875 -3.53125 -1.625 q -1.34375 -0.890625 -1.890625 -2.015625 q -0.53125 -1.125 -0.53125 -2.578125 q 0 -1.390625 0.671875 -2.6875 q 0.671875 -1.3125 2.03125 -2.3125 q 1.296875 -0.984375 3.296875 -1.5625 q 2.015625 -0.59375 4.671875 -0.59375 q 2.5625 0 4.609375 0.71875 q 2.0625 0.71875 3.5 1.890625 q 1.4375 1.171875 2.25 2.6875 q 0.8125 1.5 0.8125 3.078125 l 8.328125 0 q 0 -3.203125 -1.375 -5.96875 q -1.359375 -2.765625 -3.890625 -4.84375 q -2.515625 -2.0625 -6.125 -3.234375 q -3.609375 -1.171875 -8.109375 -1.171875 q -4.1875 0 -7.6875 1.125 q -3.484375 1.125 -6.015625 3.0625 q -2.515625 1.9375 -3.921875 4.53125 q -1.390625 2.578125 -1.390625 5.5625 q 0 3.015625 1.34375 5.296875 q 1.359375 2.265625 3.84375 3.9375 q 2.4375 1.703125 5.875 2.921875 q 3.453125 1.21875 7.640625 2.078125 q 3.421875 0.671875 5.71875 1.515625 q 2.296875 0.82810974 3.6875 1.8124847 q 1.40625 1 1.984375 2.1875 q 0.59375 1.1875 0.59375 2.671875 z" stroke-linecap="round"/>
</g>
</g>
</g>
</svg>