<?xml version="1.0" standalone="no"?>
<!DOCTYPE svg PUBLIC "-//W3C//DTD SVG 1.1//EN" "http://www.w3.org/Graphics/SVG/1.1/DTD/svg11.dtd">
<svg version="1.1" xmlns="http://www.w3.org/2000/svg" viewBox="0 0 131.45141905370292 114.58294713784056" width="394.35425716110876" height="343.7488414135217"><!-- svg-source:excalidraw --><metadata></metadata><defs><style class="style-fonts">
      </style></defs><g stroke-linecap="round" transform="translate(19.185306462772132 41.24340340649138) rotate(180.41640709228608 48.50382864847279 28.158622457136687)"><path d="M61.25 7.25 C66.28 10.36, 71.32 13.46, 84.76 21.75 M61.25 7.25 C69.21 12.16, 77.18 17.08, 84.76 21.75 M84.76 21.75 C97.01 29, 97.01 29, 84.76 36.25 M84.76 21.75 C97.01 29, 97.01 29, 84.76 36.25 M84.76 36.25 C78.43 39.7, 72.11 43.15, 61.25 49.07 M84.76 36.25 C77.19 40.38, 69.61 44.51, 61.25 49.07 M61.25 49.07 C49 56.32, 49 56.32, 36.75 49.07 M61.25 49.07 C49 56.32, 49 56.32, 36.75 49.07 M36.75 49.07 C27.03 43.98, 17.31 38.9, 12.25 36.25 M36.75 49.07 C31.09 46.11, 25.43 43.14, 12.25 36.25 M12.25 36.25 C0 29, 0 29, 12.25 21.75 M12.25 36.25 C0 29, 0 29, 12.25 21.75 M12.25 21.75 C18.51 18.04, 24.78 14.34, 36.75 7.25 M12.25 21.75 C18.21 18.22, 24.17 14.69, 36.75 7.25 M36.75 7.25 C49 0, 49 0, 61.25 7.25 M36.75 7.25 C49 0, 49 0, 61.25 7.25" stroke="#595959" stroke-width="4" fill="none"></path></g><g stroke-linecap="round" transform="translate(101.91790306627138 58.59994377736609) rotate(180.41640709228608 9.76675009890323 10.061253241780207)"><path d="M19.53 10.06 C19.53 10.64, 19.48 11.23, 19.39 11.81 C19.29 12.38, 19.14 12.96, 18.94 13.5 C18.75 14.05, 18.51 14.59, 18.23 15.09 C17.94 15.6, 17.61 16.08, 17.25 16.53 C16.89 16.97, 16.48 17.39, 16.04 17.77 C15.61 18.14, 15.14 18.48, 14.65 18.77 C14.16 19.07, 13.64 19.32, 13.11 19.52 C12.58 19.71, 12.02 19.87, 11.46 19.97 C10.91 20.07, 10.33 20.12, 9.77 20.12 C9.2 20.12, 8.63 20.07, 8.07 19.97 C7.51 19.87, 6.96 19.71, 6.43 19.52 C5.9 19.32, 5.37 19.07, 4.88 18.77 C4.39 18.48, 3.92 18.14, 3.49 17.77 C3.06 17.39, 2.65 16.97, 2.28 16.53 C1.92 16.08, 1.59 15.6, 1.31 15.09 C1.03 14.59, 0.78 14.05, 0.59 13.5 C0.4 12.96, 0.25 12.38, 0.15 11.81 C0.05 11.23, 0 10.64, 0 10.06 C0 9.48, 0.05 8.89, 0.15 8.31 C0.25 7.74, 0.4 7.17, 0.59 6.62 C0.78 6.07, 1.03 5.53, 1.31 5.03 C1.59 4.53, 1.92 4.04, 2.28 3.59 C2.65 3.15, 3.06 2.73, 3.49 2.35 C3.92 1.98, 4.39 1.64, 4.88 1.35 C5.37 1.06, 5.9 0.81, 6.43 0.61 C6.96 0.41, 7.51 0.25, 8.07 0.15 C8.63 0.05, 9.2 0, 9.77 0 C10.33 0, 10.91 0.05, 11.46 0.15 C12.02 0.25, 12.58 0.41, 13.11 0.61 C13.64 0.81, 14.16 1.06, 14.65 1.35 C15.14 1.64, 15.61 1.98, 16.04 2.35 C16.48 2.73, 16.89 3.15, 17.25 3.59 C17.61 4.04, 17.94 4.53, 18.23 5.03 C18.51 5.53, 18.75 6.07, 18.94 6.62 C19.14 7.17, 19.29 7.74, 19.39 8.31 C19.48 8.89, 19.51 9.77, 19.53 10.06 C19.56 10.35, 19.56 9.77, 19.53 10.06" stroke="none" stroke-width="0" fill="none"></path><path d="M19.53 10.06 C19.53 10.64, 19.48 11.23, 19.39 11.81 C19.29 12.38, 19.14 12.96, 18.94 13.5 C18.75 14.05, 18.51 14.59, 18.23 15.09 C17.94 15.6, 17.61 16.08, 17.25 16.53 C16.89 16.97, 16.48 17.39, 16.04 17.77 C15.61 18.14, 15.14 18.48, 14.65 18.77 C14.16 19.07, 13.64 19.32, 13.11 19.52 C12.58 19.71, 12.02 19.87, 11.46 19.97 C10.91 20.07, 10.33 20.12, 9.77 20.12 C9.2 20.12, 8.63 20.07, 8.07 19.97 C7.51 19.87, 6.96 19.71, 6.43 19.52 C5.9 19.32, 5.37 19.07, 4.88 18.77 C4.39 18.48, 3.92 18.14, 3.49 17.77 C3.06 17.39, 2.65 16.97, 2.28 16.53 C1.92 16.08, 1.59 15.6, 1.31 15.09 C1.03 14.59, 0.78 14.05, 0.59 13.5 C0.4 12.96, 0.25 12.38, 0.15 11.81 C0.05 11.23, 0 10.64, 0 10.06 C0 9.48, 0.05 8.89, 0.15 8.31 C0.25 7.74, 0.4 7.17, 0.59 6.62 C0.78 6.07, 1.03 5.53, 1.31 5.03 C1.59 4.53, 1.92 4.04, 2.28 3.59 C2.65 3.15, 3.06 2.73, 3.49 2.35 C3.92 1.98, 4.39 1.64, 4.88 1.35 C5.37 1.06, 5.9 0.81, 6.43 0.61 C6.96 0.41, 7.51 0.25, 8.07 0.15 C8.63 0.05, 9.2 0, 9.77 0 C10.33 0, 10.91 0.05, 11.46 0.15 C12.02 0.25, 12.58 0.41, 13.11 0.61 C13.64 0.81, 14.16 1.06, 14.65 1.35 C15.14 1.64, 15.61 1.98, 16.04 2.35 C16.48 2.73, 16.89 3.15, 17.25 3.59 C17.61 4.04, 17.94 4.53, 18.23 5.03 C18.51 5.53, 18.75 6.07, 18.94 6.62 C19.14 7.17, 19.29 7.74, 19.39 8.31 C19.48 8.89, 19.51 9.77, 19.53 10.06 C19.56 10.35, 19.56 9.77, 19.53 10.06" stroke="#595959" stroke-width="4" fill="none"></path></g><g stroke-linecap="round" transform="translate(57.18359225699294 84.46045598175095) rotate(180.41640709228608 9.76675009890323 10.061253241780207)"><path d="M19.53 10.06 C19.53 10.64, 19.48 11.23, 19.39 11.81 C19.29 12.38, 19.14 12.96, 18.94 13.5 C18.75 14.05, 18.51 14.59, 18.23 15.09 C17.94 15.6, 17.61 16.08, 17.25 16.53 C16.89 16.97, 16.48 17.39, 16.04 17.77 C15.61 18.14, 15.14 18.48, 14.65 18.77 C14.16 19.07, 13.64 19.32, 13.11 19.52 C12.58 19.71, 12.02 19.87, 11.46 19.97 C10.91 20.07, 10.33 20.12, 9.77 20.12 C9.2 20.12, 8.63 20.07, 8.07 19.97 C7.51 19.87, 6.96 19.71, 6.43 19.52 C5.9 19.32, 5.37 19.07, 4.88 18.77 C4.39 18.48, 3.92 18.14, 3.49 17.77 C3.06 17.39, 2.65 16.97, 2.28 16.53 C1.92 16.08, 1.59 15.6, 1.31 15.09 C1.03 14.59, 0.78 14.05, 0.59 13.5 C0.4 12.96, 0.25 12.38, 0.15 11.81 C0.05 11.23, 0 10.64, 0 10.06 C0 9.48, 0.05 8.89, 0.15 8.31 C0.25 7.74, 0.4 7.17, 0.59 6.62 C0.78 6.07, 1.03 5.53, 1.31 5.03 C1.59 4.53, 1.92 4.04, 2.28 3.59 C2.65 3.15, 3.06 2.73, 3.49 2.35 C3.92 1.98, 4.39 1.64, 4.88 1.35 C5.37 1.06, 5.9 0.81, 6.43 0.61 C6.96 0.41, 7.51 0.25, 8.07 0.15 C8.63 0.05, 9.2 0, 9.77 0 C10.33 0, 10.91 0.05, 11.46 0.15 C12.02 0.25, 12.58 0.41, 13.11 0.61 C13.64 0.81, 14.16 1.06, 14.65 1.35 C15.14 1.64, 15.61 1.98, 16.04 2.35 C16.48 2.73, 16.89 3.15, 17.25 3.59 C17.61 4.04, 17.94 4.53, 18.23 5.03 C18.51 5.53, 18.75 6.07, 18.94 6.62 C19.14 7.17, 19.29 7.74, 19.39 8.31 C19.48 8.89, 19.51 9.77, 19.53 10.06 C19.56 10.35, 19.56 9.77, 19.53 10.06" stroke="none" stroke-width="0" fill="none"></path><path d="M19.53 10.06 C19.53 10.64, 19.48 11.23, 19.39 11.81 C19.29 12.38, 19.14 12.96, 18.94 13.5 C18.75 14.05, 18.51 14.59, 18.23 15.09 C17.94 15.6, 17.61 16.08, 17.25 16.53 C16.89 16.97, 16.48 17.39, 16.04 17.77 C15.61 18.14, 15.14 18.48, 14.65 18.77 C14.16 19.07, 13.64 19.32, 13.11 19.52 C12.58 19.71, 12.02 19.87, 11.46 19.97 C10.91 20.07, 10.33 20.12, 9.77 20.12 C9.2 20.12, 8.63 20.07, 8.07 19.97 C7.51 19.87, 6.96 19.71, 6.43 19.52 C5.9 19.32, 5.37 19.07, 4.88 18.77 C4.39 18.48, 3.92 18.14, 3.49 17.77 C3.06 17.39, 2.65 16.97, 2.28 16.53 C1.92 16.08, 1.59 15.6, 1.31 15.09 C1.03 14.59, 0.78 14.05, 0.59 13.5 C0.4 12.96, 0.25 12.38, 0.15 11.81 C0.05 11.23, 0 10.64, 0 10.06 C0 9.48, 0.05 8.89, 0.15 8.31 C0.25 7.74, 0.4 7.17, 0.59 6.62 C0.78 6.07, 1.03 5.53, 1.31 5.03 C1.59 4.53, 1.92 4.04, 2.28 3.59 C2.65 3.15, 3.06 2.73, 3.49 2.35 C3.92 1.98, 4.39 1.64, 4.88 1.35 C5.37 1.06, 5.9 0.81, 6.43 0.61 C6.96 0.41, 7.51 0.25, 8.07 0.15 C8.63 0.05, 9.2 0, 9.77 0 C10.33 0, 10.91 0.05, 11.46 0.15 C12.02 0.25, 12.58 0.41, 13.11 0.61 C13.64 0.81, 14.16 1.06, 14.65 1.35 C15.14 1.64, 15.61 1.98, 16.04 2.35 C16.48 2.73, 16.89 3.15, 17.25 3.59 C17.61 4.04, 17.94 4.53, 18.23 5.03 C18.51 5.53, 18.75 6.07, 18.94 6.62 C19.14 7.17, 19.29 7.74, 19.39 8.31 C19.48 8.89, 19.51 9.77, 19.53 10.06 C19.56 10.35, 19.56 9.77, 19.53 10.06" stroke="#595959" stroke-width="4" fill="none"></path></g><g stroke-linecap="round" transform="translate(15.834406875199761 20.227978218081034) rotate(0.06316743479177367 48.50382864847279 28.158622457136715)"><path d="M61.25 7.25 C67.74 11.25, 74.23 15.25, 84.76 21.75 M61.25 7.25 C66.59 10.54, 71.92 13.83, 84.76 21.75 M84.76 21.75 C97.01 29, 97.01 29, 84.76 36.25 M84.76 21.75 C97.01 29, 97.01 29, 84.76 36.25 M84.76 36.25 C78.83 39.48, 72.91 42.71, 61.25 49.07 M84.76 36.25 C79.96 38.87, 75.16 41.48, 61.25 49.07 M61.25 49.07 C49 56.32, 49 56.32, 36.75 49.07 M61.25 49.07 C49 56.32, 49 56.32, 36.75 49.07 M36.75 49.07 C31.18 46.16, 25.62 43.24, 12.25 36.25 M36.75 49.07 C29.6 45.33, 22.46 41.59, 12.25 36.25 M12.25 36.25 C0 29, 0 29, 12.25 21.75 M12.25 36.25 C0 29, 0 29, 12.25 21.75 M12.25 21.75 C19.27 17.59, 26.29 13.44, 36.75 7.25 M12.25 21.75 C18.34 18.15, 24.43 14.54, 36.75 7.25 M36.75 7.25 C49 0, 49 0, 61.25 7.25 M36.75 7.25 C49 0, 49 0, 61.25 7.25" stroke="#595959" stroke-width="4" fill="none"></path></g><g stroke-linecap="round" transform="translate(10.000884588636609 37.38977273775714) rotate(3.11833771022908 9.76675009890323 10.061253241780207)"><path d="M19.53 10.06 C19.53 10.64, 19.48 11.23, 19.39 11.81 C19.29 12.38, 19.14 12.96, 18.94 13.5 C18.75 14.05, 18.51 14.59, 18.23 15.09 C17.94 15.6, 17.61 16.08, 17.25 16.53 C16.89 16.97, 16.48 17.39, 16.04 17.77 C15.61 18.14, 15.14 18.48, 14.65 18.77 C14.16 19.07, 13.64 19.32, 13.11 19.52 C12.58 19.71, 12.02 19.87, 11.46 19.97 C10.91 20.07, 10.33 20.12, 9.77 20.12 C9.2 20.12, 8.63 20.07, 8.07 19.97 C7.51 19.87, 6.96 19.71, 6.43 19.52 C5.9 19.32, 5.37 19.07, 4.88 18.77 C4.39 18.48, 3.92 18.14, 3.49 17.77 C3.06 17.39, 2.65 16.97, 2.28 16.53 C1.92 16.08, 1.59 15.6, 1.31 15.09 C1.03 14.59, 0.78 14.05, 0.59 13.5 C0.4 12.96, 0.25 12.38, 0.15 11.81 C0.05 11.23, 0 10.64, 0 10.06 C0 9.48, 0.05 8.89, 0.15 8.31 C0.25 7.74, 0.4 7.17, 0.59 6.62 C0.78 6.07, 1.03 5.53, 1.31 5.03 C1.59 4.53, 1.92 4.04, 2.28 3.59 C2.65 3.15, 3.06 2.73, 3.49 2.35 C3.92 1.98, 4.39 1.64, 4.88 1.35 C5.37 1.06, 5.9 0.81, 6.43 0.61 C6.96 0.41, 7.51 0.25, 8.07 0.15 C8.63 0.05, 9.2 0, 9.77 0 C10.33 0, 10.91 0.05, 11.46 0.15 C12.02 0.25, 12.58 0.41, 13.11 0.61 C13.64 0.81, 14.16 1.06, 14.65 1.35 C15.14 1.64, 15.61 1.98, 16.04 2.35 C16.48 2.73, 16.89 3.15, 17.25 3.59 C17.61 4.04, 17.94 4.53, 18.23 5.03 C18.51 5.53, 18.75 6.07, 18.94 6.62 C19.14 7.17, 19.29 7.74, 19.39 8.31 C19.48 8.89, 19.51 9.77, 19.53 10.06 C19.56 10.35, 19.56 9.77, 19.53 10.06" stroke="none" stroke-width="0" fill="none"></path><path d="M19.53 10.06 C19.53 10.64, 19.48 11.23, 19.39 11.81 C19.29 12.38, 19.14 12.96, 18.94 13.5 C18.75 14.05, 18.51 14.59, 18.23 15.09 C17.94 15.6, 17.61 16.08, 17.25 16.53 C16.89 16.97, 16.48 17.39, 16.04 17.77 C15.61 18.14, 15.14 18.48, 14.65 18.77 C14.16 19.07, 13.64 19.32, 13.11 19.52 C12.58 19.71, 12.02 19.87, 11.46 19.97 C10.91 20.07, 10.33 20.12, 9.77 20.12 C9.2 20.12, 8.63 20.07, 8.07 19.97 C7.51 19.87, 6.96 19.71, 6.43 19.52 C5.9 19.32, 5.37 19.07, 4.88 18.77 C4.39 18.48, 3.92 18.14, 3.49 17.77 C3.06 17.39, 2.65 16.97, 2.28 16.53 C1.92 16.08, 1.59 15.6, 1.31 15.09 C1.03 14.59, 0.78 14.05, 0.59 13.5 C0.4 12.96, 0.25 12.38, 0.15 11.81 C0.05 11.23, 0 10.64, 0 10.06 C0 9.48, 0.05 8.89, 0.15 8.31 C0.25 7.74, 0.4 7.17, 0.59 6.62 C0.78 6.07, 1.03 5.53, 1.31 5.03 C1.59 4.53, 1.92 4.04, 2.28 3.59 C2.65 3.15, 3.06 2.73, 3.49 2.35 C3.92 1.98, 4.39 1.64, 4.88 1.35 C5.37 1.06, 5.9 0.81, 6.43 0.61 C6.96 0.41, 7.51 0.25, 8.07 0.15 C8.63 0.05, 9.2 0, 9.77 0 C10.33 0, 10.91 0.05, 11.46 0.15 C12.02 0.25, 12.58 0.41, 13.11 0.61 C13.64 0.81, 14.16 1.06, 14.65 1.35 C15.14 1.64, 15.61 1.98, 16.04 2.35 C16.48 2.73, 16.89 3.15, 17.25 3.59 C17.61 4.04, 17.94 4.53, 18.23 5.03 C18.51 5.53, 18.75 6.07, 18.94 6.62 C19.14 7.17, 19.29 7.74, 19.39 8.31 C19.48 8.89, 19.51 9.77, 19.53 10.06 C19.56 10.35, 19.56 9.77, 19.53 10.06" stroke="#595959" stroke-width="4" fill="none"></path></g><g stroke-linecap="round" transform="translate(57.43141201273477 9.999141228638337) rotate(3.11833771022908 9.76675009890323 10.061253241780207)"><path d="M19.53 10.06 C19.53 10.64, 19.48 11.23, 19.39 11.81 C19.29 12.38, 19.14 12.96, 18.94 13.5 C18.75 14.05, 18.51 14.59, 18.23 15.09 C17.94 15.6, 17.61 16.08, 17.25 16.53 C16.89 16.97, 16.48 17.39, 16.04 17.77 C15.61 18.14, 15.14 18.48, 14.65 18.77 C14.16 19.07, 13.64 19.32, 13.11 19.52 C12.58 19.71, 12.02 19.87, 11.46 19.97 C10.91 20.07, 10.33 20.12, 9.77 20.12 C9.2 20.12, 8.63 20.07, 8.07 19.97 C7.51 19.87, 6.96 19.71, 6.43 19.52 C5.9 19.32, 5.37 19.07, 4.88 18.77 C4.39 18.48, 3.92 18.14, 3.49 17.77 C3.06 17.39, 2.65 16.97, 2.28 16.53 C1.92 16.08, 1.59 15.6, 1.31 15.09 C1.03 14.59, 0.78 14.05, 0.59 13.5 C0.4 12.96, 0.25 12.38, 0.15 11.81 C0.05 11.23, 0 10.64, 0 10.06 C0 9.48, 0.05 8.89, 0.15 8.31 C0.25 7.74, 0.4 7.17, 0.59 6.62 C0.78 6.07, 1.03 5.53, 1.31 5.03 C1.59 4.53, 1.92 4.04, 2.28 3.59 C2.65 3.15, 3.06 2.73, 3.49 2.35 C3.92 1.98, 4.39 1.64, 4.88 1.35 C5.37 1.06, 5.9 0.81, 6.43 0.61 C6.96 0.41, 7.51 0.25, 8.07 0.15 C8.63 0.05, 9.2 0, 9.77 0 C10.33 0, 10.91 0.05, 11.46 0.15 C12.02 0.25, 12.58 0.41, 13.11 0.61 C13.64 0.81, 14.16 1.06, 14.65 1.35 C15.14 1.64, 15.61 1.98, 16.04 2.35 C16.48 2.73, 16.89 3.15, 17.25 3.59 C17.61 4.04, 17.94 4.53, 18.23 5.03 C18.51 5.53, 18.75 6.07, 18.94 6.62 C19.14 7.17, 19.29 7.74, 19.39 8.31 C19.48 8.89, 19.51 9.77, 19.53 10.06 C19.56 10.35, 19.56 9.77, 19.53 10.06" stroke="none" stroke-width="0" fill="none"></path><path d="M19.53 10.06 C19.53 10.64, 19.48 11.23, 19.39 11.81 C19.29 12.38, 19.14 12.96, 18.94 13.5 C18.75 14.05, 18.51 14.59, 18.23 15.09 C17.94 15.6, 17.61 16.08, 17.25 16.53 C16.89 16.97, 16.48 17.39, 16.04 17.77 C15.61 18.14, 15.14 18.48, 14.65 18.77 C14.16 19.07, 13.64 19.32, 13.11 19.52 C12.58 19.71, 12.02 19.87, 11.46 19.97 C10.91 20.07, 10.33 20.12, 9.77 20.12 C9.2 20.12, 8.63 20.07, 8.07 19.97 C7.51 19.87, 6.96 19.71, 6.43 19.52 C5.9 19.32, 5.37 19.07, 4.88 18.77 C4.39 18.48, 3.92 18.14, 3.49 17.77 C3.06 17.39, 2.65 16.97, 2.28 16.53 C1.92 16.08, 1.59 15.6, 1.31 15.09 C1.03 14.59, 0.78 14.05, 0.59 13.5 C0.4 12.96, 0.25 12.38, 0.15 11.81 C0.05 11.23, 0 10.64, 0 10.06 C0 9.48, 0.05 8.89, 0.15 8.31 C0.25 7.74, 0.4 7.17, 0.59 6.62 C0.78 6.07, 1.03 5.53, 1.31 5.03 C1.59 4.53, 1.92 4.04, 2.28 3.59 C2.65 3.15, 3.06 2.73, 3.49 2.35 C3.92 1.98, 4.39 1.64, 4.88 1.35 C5.37 1.06, 5.9 0.81, 6.43 0.61 C6.96 0.41, 7.51 0.25, 8.07 0.15 C8.63 0.05, 9.2 0, 9.77 0 C10.33 0, 10.91 0.05, 11.46 0.15 C12.02 0.25, 12.58 0.41, 13.11 0.61 C13.64 0.81, 14.16 1.06, 14.65 1.35 C15.14 1.64, 15.61 1.98, 16.04 2.35 C16.48 2.73, 16.89 3.15, 17.25 3.59 C17.61 4.04, 17.94 4.53, 18.23 5.03 C18.51 5.53, 18.75 6.07, 18.94 6.62 C19.14 7.17, 19.29 7.74, 19.39 8.31 C19.48 8.89, 19.51 9.77, 19.53 10.06 C19.56 10.35, 19.56 9.77, 19.53 10.06" stroke="#595959" stroke-width="4" fill="none"></path></g></svg>